<svg width="700" height="700" xmlns="http://www.w3.org/2000/svg">
 <g>
  <title>Layer 1</title>
  <rect id="svg_39" height="700" width="700" stroke-width="0" stroke="#000" fill="#00ffff"/>
  <ellipse stroke="#000" ry="300" rx="300" id="svg_34" cy="350" cx="350" stroke-width="0" fill="#ffffff"/>
  <rect id="svg_37" height="350" width="350" y="350" stroke-width="0" stroke="#000" fill="#00ffff"/>
  <rect stroke="#000" x="50" id="svg_35" height="300" width="300" y="50" stroke-width="0" fill="#ffffff"/>
  <rect id="svg_36" height="350" width="350" y="0" x="350" stroke-width="0" stroke="#000" fill="#00ffff"/>
  <path id="svg_6" d="m350,200c0,0 300,150 300,150c0,0 -300,0 -300,0c0,0 0,-150 0,-150z" opacity="NaN" stroke-width="0" stroke="#000" fill="#ffffff"/>
  <line fill="none" stroke="#000" x1="350" y1="0" x2="350" y2="700" id="svg_3" stroke-linejoin="undefined" stroke-linecap="undefined"/>
  <line fill="none" stroke="#000" x1="0" y1="350" x2="700" y2="350" id="svg_4" stroke-linejoin="undefined" stroke-linecap="undefined"/>
  <line fill="none" stroke="#000" x1="350" y1="0" x2="363.28533" y2="13.28533" id="svg_7" stroke-linejoin="undefined" stroke-linecap="undefined"/>
  <line fill="none" stroke="#000" x1="700" y1="350" x2="686.39853" y2="363.60147" id="svg_8" stroke-linejoin="undefined" stroke-linecap="undefined"/>
  <line fill="none" stroke="#000" x1="350" y1="0" x2="338.40259" y2="11.59741" id="svg_9" stroke-linejoin="undefined" stroke-linecap="undefined"/>
  <line fill="none" stroke="#000" x1="700" y1="350" x2="687.65091" y2="337.65091" id="svg_10" stroke-linejoin="undefined" stroke-linecap="undefined"/>
  <line fill="none" stroke="#000" x1="650" y1="340" x2="650" y2="360" id="svg_11" stroke-linejoin="undefined" stroke-linecap="undefined"/>
  <line fill="none" stroke="#000" x1="500" y1="340" x2="500" y2="360" id="svg_12" stroke-linejoin="undefined" stroke-linecap="undefined"/>
  <line fill="none" stroke="#000" x1="50" y1="340" x2="50" y2="360" id="svg_13" stroke-linejoin="undefined" stroke-linecap="undefined"/>
  <line fill="none" stroke="#000" x1="200" y1="340" x2="200" y2="360" id="svg_14" stroke-linejoin="undefined" stroke-linecap="undefined"/>
  <line fill="none" x1="340" y1="50" x2="360" y2="50" id="svg_17" stroke="#000000"/>
  <line fill="none" stroke="#000000" x1="340" y1="650" x2="360" y2="650" id="svg_18"/>
  <line fill="none" stroke="#000000" x1="340" y1="200" x2="360" y2="200" id="svg_19"/>
  <line fill="none" x1="340" y1="500" x2="360" y2="500" id="svg_20" stroke="#000000"/>
  <text fill="#000000" x="367" y="57" id="svg_28" stroke-width="0" font-size="24" font-family="Noto Sans JP" text-anchor="start" xml:space="preserve">R</text>
  <text fill="#000000" x="371" y="657" id="svg_31" stroke-width="0" font-size="24" font-family="Noto Sans JP" text-anchor="start" xml:space="preserve">-R</text>
  <text fill="#000000" x="36" y="327" id="svg_26" stroke-width="0" font-size="24" font-family="Noto Sans JP" text-anchor="start" xml:space="preserve">-R</text>
  <text fill="#000000" x="643" y="333" id="svg_24" stroke-width="0" font-size="24" font-family="Noto Sans JP" text-anchor="start" xml:space="preserve">R</text>
  <text fill="#000000" stroke-width="0" x="371" y="208" id="svg_29" font-size="24" font-family="Noto Sans JP" text-anchor="start" xml:space="preserve">R/2</text>
  <text fill="#000000" stroke-width="0" x="368" y="508" id="svg_30" font-size="24" font-family="Noto Sans JP" text-anchor="start" xml:space="preserve" stroke="null">-R/2</text>
  <text fill="#000000" stroke-width="0" x="177" y="332" id="svg_27" font-size="24" font-family="Noto Sans JP" text-anchor="start" xml:space="preserve" stroke="null">-R/2</text>
  <text fill="#000000" stroke-width="0" x="485" y="331" id="svg_25" font-size="24" font-family="Noto Sans JP" text-anchor="start" xml:space="preserve">R/2</text>
  <path id="svg_15" d="m91,85" opacity="NaN" stroke-width="3" stroke="#000" fill="#0fffff"/>
  <path id="svg_23" d="m650,350" opacity="NaN" stroke-width="3" stroke="#000" fill="#00ffff"/>
  <rect id="svg_38" height="700" width="700" stroke-width="6" stroke="#000" fill="none"/>
 </g>

</svg>